<svg xmlns="http://www.w3.org/2000/svg" width="35" height="35" viewBox="0 0 35 35">
  <g id="_004-google-plus" data-name="004-google-plus" transform="translate(0 0.001)">
    <g id="Group_40" data-name="Group 40" transform="translate(0 -0.001)">
      <circle id="XMLID_30_" cx="17.5" cy="17.5" r="17.5" transform="translate(0 0)" fill="#dc4e41"/>
    </g>
    <g id="Group_42" data-name="Group 42" transform="translate(5.77 10.841)">
      <path id="Path_21" data-name="Path 21" d="M19.521,42.882A7.422,7.422,0,0,0,24.528,49.9a7.325,7.325,0,0,0,8.006-2.134,8.4,8.4,0,0,0,1.5-5.939c-2.369-.021-4.737-.014-7.1-.011,0,.844,0,1.684,0,2.528,1.418.039,2.837.021,4.255.05a4.1,4.1,0,0,1-2.411,2.812,4.691,4.691,0,1,1-3.159-8.825,5.216,5.216,0,0,1,4.39.858c.659-.617,1.277-1.277,1.883-1.943a7.466,7.466,0,0,0-12.375,5.584Z" transform="translate(-19.517 -35.446)" fill="#dc4e41"/>
      <path id="Path_22" data-name="Path 22" d="M74.58,48.668c-.007.706-.014,1.415-.018,2.12-.709.007-1.415.011-2.12.014v2.113c.706,0,1.415.007,2.12.014.007.706.007,1.411.014,2.12.7,0,1.408,0,2.113,0,0-.709.007-1.415.014-2.124l2.12-.011V50.8c-.705,0-1.415-.007-2.12-.014,0-.706-.011-1.415-.014-2.12Z" transform="translate(-55.449 -44.422)" fill="#dc4e41"/>
      <g id="Group_41" data-name="Group 41">
        <path id="Path_23" data-name="Path 23" d="M19.521,42.882A7.465,7.465,0,0,1,31.9,37.3c-.606.667-1.224,1.326-1.883,1.943a5.216,5.216,0,0,0-4.39-.858,4.691,4.691,0,1,0,3.159,8.826A4.1,4.1,0,0,0,31.194,44.4c-1.418-.028-2.837-.011-4.255-.05,0-.844-.007-1.684,0-2.528,2.365,0,4.733-.011,7.1.011a8.392,8.392,0,0,1-1.5,5.939A7.325,7.325,0,0,1,24.528,49.9,7.422,7.422,0,0,1,19.521,42.882Z" transform="translate(-19.517 -35.445)" fill="#fff"/>
        <path id="Path_24" data-name="Path 24" d="M74.58,48.668H76.69c0,.706.011,1.415.014,2.12.705.007,1.415.011,2.12.014v2.113l-2.12.011c-.007.709-.011,1.415-.014,2.124-.705,0-1.411,0-2.113,0-.007-.709-.007-1.415-.014-2.12-.705-.007-1.415-.011-2.12-.014V50.8q1.059-.005,2.12-.014C74.566,50.083,74.573,49.374,74.58,48.668Z" transform="translate(-55.449 -44.422)" fill="#fff"/>
      </g>
    </g>
  </g>
</svg>
